<svg width="20" height="20" viewBox="0 0 20 20" fill="none" xmlns="http://www.w3.org/2000/svg">
<path d="M15.8308 5.83242V3.33283C15.8308 3.11185 15.743 2.89993 15.5867 2.74367C15.4305 2.58742 15.2186 2.49963 14.9976 2.49963H4.16603C3.72407 2.49963 3.30022 2.6752 2.98771 2.98771C2.6752 3.30022 2.49963 3.72407 2.49963 4.16603C2.49963 4.60798 2.6752 5.03183 2.98771 5.34434C3.30022 5.65685 3.72407 5.83242 4.16603 5.83242H16.664C16.8849 5.83242 17.0969 5.9202 17.2531 6.07646C17.4094 6.23271 17.4972 6.44464 17.4972 6.66562V9.9984H14.9976C14.5556 9.9984 14.1318 10.174 13.8193 10.4865C13.5068 10.799 13.3312 11.2228 13.3312 11.6648C13.3312 12.1067 13.5068 12.5306 13.8193 12.8431C14.1318 13.1556 14.5556 13.3312 14.9976 13.3312H17.4972C17.7181 13.3312 17.9301 13.2434 18.0863 13.0871C18.2426 12.9309 18.3304 12.719 18.3304 12.498V10.8316C18.3304 10.6106 18.2426 10.3987 18.0863 10.2424C17.9301 10.0862 17.7181 9.9984 17.4972 9.9984" fill="#A1A1A1"/>
<path d="M15.8308 5.83242V3.33283C15.8308 3.11185 15.743 2.89993 15.5867 2.74367C15.4305 2.58742 15.2186 2.49963 14.9976 2.49963H4.16603C3.72407 2.49963 3.30022 2.6752 2.98771 2.98771C2.6752 3.30022 2.49963 3.72407 2.49963 4.16603C2.49963 4.60798 2.6752 5.03183 2.98771 5.34434C3.30022 5.65685 3.72407 5.83242 4.16603 5.83242H16.664C16.8849 5.83242 17.0969 5.9202 17.2531 6.07646C17.4094 6.23271 17.4972 6.44464 17.4972 6.66561V9.9984M17.4972 9.9984H14.9976C14.5556 9.9984 14.1318 10.174 13.8193 10.4865C13.5068 10.799 13.3312 11.2228 13.3312 11.6648C13.3312 12.1067 13.5068 12.5306 13.8193 12.8431C14.1318 13.1556 14.5556 13.3312 14.9976 13.3312H17.4972C17.7181 13.3312 17.9301 13.2434 18.0863 13.0871C18.2426 12.9309 18.3304 12.719 18.3304 12.498V10.8316C18.3304 10.6106 18.2426 10.3987 18.0863 10.2424C17.9301 10.0862 17.7181 9.9984 17.4972 9.9984Z" stroke="#A1A1A1" stroke-width="1.66639" stroke-linecap="round" stroke-linejoin="round"/>
<path d="M2.49963 4.16602V15.8308C2.49963 16.2727 2.6752 16.6966 2.98771 17.0091C3.30022 17.3216 3.72407 17.4972 4.16603 17.4972H16.664C16.8849 17.4972 17.0969 17.4094 17.2531 17.2531C17.4094 17.0969 17.4972 16.8849 17.4972 16.664V13.3312" fill="#A1A1A1"/>
<path d="M2.49963 4.16602V15.8308C2.49963 16.2727 2.6752 16.6966 2.98771 17.0091C3.30022 17.3216 3.72407 17.4972 4.16603 17.4972H16.664C16.8849 17.4972 17.0969 17.4094 17.2531 17.2531C17.4094 17.0969 17.4972 16.8849 17.4972 16.664V13.3312" stroke="#A1A1A1" stroke-width="1.66639" stroke-linecap="round" stroke-linejoin="round"/>
</svg>
