<svg width="19" height="19" viewBox="0 0 19 19" fill="none" xmlns="http://www.w3.org/2000/svg">
<path d="M3.95801 7.12516H5.54134M17.4163 11.4793V6.54883C17.4165 6.31257 17.3702 6.07858 17.2799 5.86026C17.1895 5.64194 17.0571 5.44358 16.89 5.27652C16.7229 5.10945 16.5246 4.97697 16.3062 4.88665C16.0879 4.79634 15.8539 4.74995 15.6177 4.75016C15.2535 4.75016 14.9091 4.58391 14.6811 4.3005L14.2497 3.76058C13.9401 3.37266 13.785 3.1795 13.5886 3.0457C13.4575 2.95636 13.3136 2.88724 13.1619 2.84066C12.9347 2.771 12.6869 2.771 12.1905 2.771H10.7671C10.2708 2.771 10.023 2.771 9.79576 2.84066C9.64405 2.88724 9.50021 2.95636 9.36905 3.0457C9.17272 3.18029 9.01755 3.37345 8.70801 3.76058C8.39847 4.1477 8.2433 4.34166 8.04697 4.47545C7.91581 4.5648 7.77197 4.63392 7.62026 4.6805C7.39384 4.75016 7.14526 4.75016 6.64967 4.75016H6.33301C4.09417 4.75016 2.97397 4.75016 2.27888 5.44604C1.58301 6.14112 1.58301 7.26133 1.58301 9.50016V11.4793C1.58301 13.7182 1.58301 14.8384 2.27888 15.5335C2.97397 16.2293 4.09417 16.2293 6.33301 16.2293H12.6663C14.9052 16.2293 16.0254 16.2293 16.7205 15.5335C17.4163 14.8384 17.4163 13.7182 17.4163 11.4793Z" stroke="#333333" stroke-width="1.5" stroke-linecap="round" stroke-linejoin="round"/>
<path d="M14.6693 10.2917C14.6693 11.1315 14.3356 11.937 13.7418 12.5308C13.1479 13.1247 12.3425 13.4583 11.5026 13.4583C10.6628 13.4583 9.8573 13.1247 9.26343 12.5308C8.66957 11.937 8.33594 11.1315 8.33594 10.2917C8.33594 9.45181 8.66957 8.64636 9.26343 8.05249C9.8573 7.45863 10.6628 7.125 11.5026 7.125C12.3425 7.125 13.1479 7.45863 13.7418 8.05249C14.3356 8.64636 14.6693 9.45181 14.6693 10.2917Z" stroke="#333333" stroke-width="1.5" stroke-linecap="round" stroke-linejoin="round"/>
</svg>
