<svg width="22" height="23" viewBox="0 0 22 23" fill="none" xmlns="http://www.w3.org/2000/svg">
<path d="M8.66667 3.79167H13C13 3.21703 12.7717 2.66593 12.3654 2.2596C11.9591 1.85327 11.408 1.625 10.8333 1.625C10.2587 1.625 9.7076 1.85327 9.30127 2.2596C8.89494 2.66593 8.66667 3.21703 8.66667 3.79167ZM7.04167 3.79167C7.04167 3.29374 7.13974 2.80069 7.33029 2.34066C7.52084 1.88063 7.80013 1.46264 8.15222 1.11055C8.50431 0.758465 8.9223 0.479173 9.38233 0.288623C9.84235 0.0980744 10.3354 0 10.8333 0C11.3313 0 11.8243 0.0980744 12.2843 0.288623C12.7444 0.479173 13.1624 0.758465 13.5144 1.11055C13.8665 1.46264 14.1458 1.88063 14.3364 2.34066C14.5269 2.80069 14.625 3.29374 14.625 3.79167H20.8542C21.0697 3.79167 21.2763 3.87727 21.4287 4.02964C21.5811 4.18202 21.6667 4.38868 21.6667 4.60417C21.6667 4.81966 21.5811 5.02632 21.4287 5.17869C21.2763 5.33106 21.0697 5.41667 20.8542 5.41667H19.4242L18.1567 18.5369C18.0594 19.5422 17.5912 20.4753 16.8433 21.1541C16.0954 21.8329 15.1215 22.2087 14.1115 22.2083H7.55517C6.54535 22.2084 5.57169 21.8325 4.82403 21.1537C4.07636 20.4749 3.60829 19.542 3.51108 18.5369L2.2425 5.41667H0.8125C0.597012 5.41667 0.390349 5.33106 0.237976 5.17869C0.0856023 5.02632 0 4.81966 0 4.60417C0 4.38868 0.0856023 4.18202 0.237976 4.02964C0.390349 3.87727 0.597012 3.79167 0.8125 3.79167H7.04167ZM9.20833 8.9375C9.20833 8.72201 9.12273 8.51535 8.97036 8.36298C8.81798 8.2106 8.61132 8.125 8.39583 8.125C8.18034 8.125 7.97368 8.2106 7.82131 8.36298C7.66894 8.51535 7.58333 8.72201 7.58333 8.9375V17.0625C7.58333 17.278 7.66894 17.4847 7.82131 17.637C7.97368 17.7894 8.18034 17.875 8.39583 17.875C8.61132 17.875 8.81798 17.7894 8.97036 17.637C9.12273 17.4847 9.20833 17.278 9.20833 17.0625V8.9375ZM13.2708 8.125C13.4863 8.125 13.693 8.2106 13.8454 8.36298C13.9977 8.51535 14.0833 8.72201 14.0833 8.9375V17.0625C14.0833 17.278 13.9977 17.4847 13.8454 17.637C13.693 17.7894 13.4863 17.875 13.2708 17.875C13.0553 17.875 12.8487 17.7894 12.6963 17.637C12.5439 17.4847 12.4583 17.278 12.4583 17.0625V8.9375C12.4583 8.72201 12.5439 8.51535 12.6963 8.36298C12.8487 8.2106 13.0553 8.125 13.2708 8.125ZM5.1285 18.3809C5.18693 18.9839 5.46785 19.5436 5.91648 19.9508C6.36512 20.358 6.94931 20.5835 7.55517 20.5833H14.1115C14.7174 20.5835 15.3015 20.358 15.7502 19.9508C16.1988 19.5436 16.4797 18.9839 16.5382 18.3809L17.7927 5.41667H3.874L5.1285 18.3809Z" fill="white"/>
</svg>
