<svg width="20" height="20" viewBox="0 0 20 20" fill="none" xmlns="http://www.w3.org/2000/svg">
<path d="M2.49963 8.33198C2.49958 8.08958 2.5524 7.85008 2.65443 7.6302C2.75646 7.41031 2.90523 7.21533 3.09037 7.05886L8.92274 2.05968C9.22352 1.80548 9.60459 1.66602 9.9984 1.66602C10.3922 1.66602 10.7733 1.80548 11.0741 2.05968L16.9064 7.05886C17.0916 7.21533 17.2403 7.41031 17.3424 7.6302C17.4444 7.85008 17.4972 8.08958 17.4972 8.33198V15.8307C17.4972 16.2727 17.3216 16.6966 17.0091 17.0091C16.6966 17.3216 16.2727 17.4971 15.8308 17.4971H4.16603C3.72407 17.4971 3.30022 17.3216 2.98771 17.0091C2.6752 16.6966 2.49963 16.2727 2.49963 15.8307V8.33198Z" fill="#FAFAFA" stroke="#FAFAFA" stroke-width="1.66639" stroke-linecap="round" stroke-linejoin="round"/>
<path d="M12.498 17.4972V10.8316C12.498 10.6106 12.4102 10.3987 12.2539 10.2425C12.0977 10.0862 11.8857 9.99841 11.6648 9.99841H8.33198C8.111 9.99841 7.89907 10.0862 7.74282 10.2425C7.58656 10.3987 7.49878 10.6106 7.49878 10.8316V17.4972" fill="#1D1B1B"/>
<path d="M12.498 17.4972V10.8316C12.498 10.6106 12.4102 10.3987 12.2539 10.2425C12.0977 10.0862 11.8857 9.99841 11.6648 9.99841H8.33198C8.111 9.99841 7.89907 10.0862 7.74282 10.2425C7.58656 10.3987 7.49878 10.6106 7.49878 10.8316V17.4972" stroke="#FAFAFA" stroke-width="1.66639" stroke-linecap="round" stroke-linejoin="round"/>
</svg>
