<svg width="26" height="26" viewBox="0 0 26 26" fill="none" xmlns="http://www.w3.org/2000/svg">
<path d="M15.1667 8.66683V6.50016C15.1667 5.92553 14.9384 5.37443 14.5321 4.9681C14.1257 4.56177 13.5746 4.3335 13 4.3335H5.41667C4.84203 4.3335 4.29093 4.56177 3.8846 4.9681C3.47827 5.37443 3.25 5.92553 3.25 6.50016V19.5002C3.25 20.0748 3.47827 20.6259 3.8846 21.0322C4.29093 21.4386 4.84203 21.6668 5.41667 21.6668H13C13.5746 21.6668 14.1257 21.4386 14.5321 21.0322C14.9384 20.6259 15.1667 20.0748 15.1667 19.5002V17.3335" stroke="white" stroke-width="2" stroke-linecap="round" stroke-linejoin="round"/>
<path d="M9.75 13H22.75M22.75 13L19.5 9.75M22.75 13L19.5 16.25" stroke="white" stroke-width="2" stroke-linecap="round" stroke-linejoin="round"/>
</svg>
