<svg width="16" height="16" viewBox="0 0 16 16" fill="none" xmlns="http://www.w3.org/2000/svg">
<g clip-path="url(#clip0_5_309)">
<path d="M6.84424 13.9977C6.96125 14.2003 7.12954 14.3686 7.33219 14.4856C7.53484 14.6026 7.76472 14.6642 7.99872 14.6642C8.23271 14.6642 8.46259 14.6026 8.66524 14.4856C8.86789 14.3686 9.03618 14.2003 9.15319 13.9977" stroke="#FAFAFA" stroke-width="1.33311" stroke-linecap="round" stroke-linejoin="round"/>
<path d="M2.17427 10.2156C2.0872 10.3111 2.02973 10.4298 2.00887 10.5573C1.98801 10.6848 2.00465 10.8156 2.05676 10.9338C2.10888 11.052 2.19423 11.1525 2.30242 11.2231C2.41062 11.2937 2.537 11.3314 2.66619 11.3315H13.3311C13.4603 11.3315 13.5867 11.294 13.695 11.2235C13.8032 11.1531 13.8887 11.0527 13.9409 10.9345C13.9932 10.8164 14.01 10.6856 13.9893 10.5581C13.9686 10.4306 13.9113 10.3118 13.8244 10.2163C12.9378 9.30245 11.998 8.33128 11.998 5.33244C11.998 4.27175 11.5766 3.2545 10.8266 2.50448C10.0766 1.75446 9.05934 1.3331 7.99865 1.3331C6.93796 1.3331 5.92071 1.75446 5.17069 2.50448C4.42066 3.2545 3.99931 4.27175 3.99931 5.33244C3.99931 8.33128 3.05879 9.30245 2.17427 10.2156Z" stroke="#FAFAFA" stroke-width="1.33311" stroke-linecap="round" stroke-linejoin="round"/>
</g>
<defs>
<clipPath id="clip0_5_309">
<rect width="15.9974" height="15.9974" fill="white"/>
</clipPath>
</defs>
</svg>
